<svg width="200" height="80" viewBox="0 0 200 80" fill="none" xmlns="http://www.w3.org/2000/svg">
<path d="M28.6271 31.6674H36.085V15.5785C36.6977 14.7106 38.1283 13.2276 38.536 12.87C40.4267 11.2367 42.3173 11.542 42.3173 14.3529V31.6674H49.7729V14.5056C49.7729 12.2071 47.4244 10.0112 43.9005 10.0112C40.4768 10.0112 37.618 12.7174 36.085 14.7106V10.8267H28.6271V31.6674Z" fill="#F3A1A2"/>
<path d="M59.7298 32.1779C62.4883 32.1779 65.297 30.0845 66.4724 28.1437C66.7275 30.4421 68.6182 32.1779 71.0191 32.1779C73.6752 32.1779 75.821 30.0321 75.821 27.376L75.4109 27.3259C75.3084 28.8066 75.0533 29.0617 74.6957 29.0617C74.0328 29.0617 73.8779 28.2462 73.8779 27.3259V18.8475C73.8779 16.294 72.8073 14.3008 71.0692 12.8703C69.0783 11.237 66.3699 10.3691 63.1011 10.3691C58.3517 10.3691 54.5202 12.8202 54.5202 15.9364C54.5202 17.8248 55.6956 19.7655 58.3517 19.5104C59.9849 19.3578 61.2127 17.9273 61.2127 16.9569C61.2127 16.9569 59.5772 16.5491 59.5772 14.1482C59.5772 11.7473 61.2127 10.9295 63.051 10.9295C64.9394 10.9295 66.4223 12.2074 66.4223 14.6083V18.2849C59.322 21.6562 53.6022 22.0138 53.6022 27.2758C53.6022 30.0321 56.2059 32.1779 59.7298 32.1779ZM63.1535 29.2667C61.723 29.2667 60.7002 27.7861 60.7002 26.2029C60.7002 22.5765 62.8984 20.7883 66.4223 18.745V27.6334C65.5544 28.7041 64.5316 29.2667 63.1535 29.2667Z" fill="#F3A1A2"/>
<path d="M85.5223 32.178C88.9437 32.178 91.8047 29.4719 93.3378 27.4787V27.5812C93.3378 30.1347 95.3287 32.178 97.9346 32.178C100.591 32.178 102.734 30.0322 102.734 27.3762L102.326 27.3261C102.224 28.8067 101.969 29.0618 101.611 29.0618C100.948 29.0618 100.793 28.2464 100.793 27.3261V10.8271H93.3378V26.6108C92.7227 27.4787 91.2945 28.9616 90.8845 29.3193C88.9961 30.9525 87.1054 30.6473 87.1054 27.8363V10.8271H79.6475V27.6837C79.6475 29.9821 81.9983 32.178 85.5223 32.178Z" fill="#F3A1A2"/>
<path d="M115.756 40.5561C123.674 40.2987 128.373 35.4468 128.373 31.5652C128.373 26.203 124.287 25.0276 119.23 25.0276C116.981 25.0276 114.683 25.2326 111.006 25.2326C109.526 25.2326 109.013 24.875 109.013 24.1073C109.013 23.342 109.883 22.4741 111.006 21.8613C112.539 22.5242 114.48 22.8317 116.624 22.8317C122.396 22.8317 126.535 20.0731 126.535 16.7018C126.535 13.3305 122.856 10.6745 117.494 10.3168C117.494 9.70408 118.157 7.96831 120.455 7.96831C123.521 7.96831 123.521 10.3168 123.521 10.3168C124.389 10.3168 126.535 8.9387 126.535 6.5879C126.535 4.597 124.389 3.06396 122.141 3.06396C116.931 3.06396 116.981 8.98882 117.084 10.3168H116.624C110.751 10.3168 106.615 13.1779 106.615 16.7018C106.615 18.5401 108.198 20.4308 110.444 21.6062C109.473 22.2691 105.337 24.875 105.337 27.9912C105.337 29.6244 106.615 31.6677 110.139 31.6677C117.596 31.6677 124.592 31.9229 124.592 34.7839C124.592 38.768 118.822 40.0436 115.858 40.0436C113.152 40.0436 110.086 39.0231 110.086 36.7247C110.086 34.7839 111.772 35.3443 111.772 35.3443C111.772 35.3443 111.057 32.1279 108.4 32.1279C106.102 32.1279 105.287 33.8636 105.287 35.1917C105.287 36.0094 105.542 40.8614 115.756 40.5561ZM116.624 22.3214C113.918 22.3214 112.997 20.023 112.997 16.7018C112.997 13.228 113.918 10.8271 116.624 10.8271C119.025 10.8271 120.15 13.228 120.15 16.7018C120.15 20.023 119.18 22.3214 116.624 22.3214Z" fill="#F3A1A2"/>
<path d="M132.2 31.6676H139.658V15.5787C140.271 14.7108 141.701 13.2278 142.109 12.8702C144 11.2369 145.89 11.5422 145.89 14.3531V31.6676H153.346V14.5058C153.346 12.2073 150.997 10.0114 147.474 10.0114C144.05 10.0114 141.191 12.7176 139.658 14.7108V0H132.2V31.6676Z" fill="#F3A1A2"/>
<path d="M167.492 11.3396V10.8271H165.551V3.57422H165.041C165.041 7.81342 162.588 10.7269 158.503 10.8271H155.897V11.3396H158.093V27.5812C158.093 30.1347 160.086 32.178 162.69 32.178C165.346 32.178 167.492 30.0322 167.492 27.3761L167.084 27.326C166.982 28.8067 166.727 29.0618 166.369 29.0618C165.704 29.0618 165.551 28.2463 165.551 27.326V11.3396H167.492Z" fill="#F3A1A2"/>
<path d="M170.708 41.3216C172.649 41.3216 173.824 40.9639 174.795 40.1462C176.838 38.6154 178.829 34.7316 180.004 32.2304L189.608 10.8271H189.045L183.171 23.6996L176.991 10.8271H169.227L179.699 31.6678C178.421 34.5288 176.225 38.4605 174.335 39.8409C173.159 40.7088 171.473 40.0437 171.473 38.6154C171.473 36.9799 173.569 36.5721 173.569 36.5721C173.569 36.5721 173.262 32.3307 169.688 32.3307C166.827 32.3307 165.294 34.579 165.294 36.3147C165.294 38.9708 167.542 41.3216 170.708 41.3216Z" fill="#F3A1A2"/>
<path d="M14.1162 79.1945C20.9181 79.1945 25.1163 74.4906 26.4511 68.322L25.7518 68.1945C24.417 72.2013 21.3646 74.9986 17.8042 74.9986C12.7791 74.9986 9.15493 70.4838 9.15493 61.773C9.15493 56.4313 10.6174 52.6158 14.1777 52.6158C16.6584 52.6158 18.1846 54.142 18.1846 56.6227C18.1846 59.6113 16.1504 60.1193 16.1504 60.1193C16.1504 61.4541 17.9932 63.2992 20.2825 63.2992C23.2074 63.2992 24.4785 61.0737 24.4785 58.8482C24.4785 54.9689 19.7108 51.9165 13.7335 51.9165C6.16631 52.1078 0 58.1489 0 65.5248C0 73.0897 6.35766 79.1945 14.1162 79.1945Z" fill="white"/>
<path d="M43.6768 79.1944C51.4331 79.1944 57.7293 73.1534 57.7293 65.5884C57.7293 58.085 51.4331 52.0439 43.6768 52.0439C35.9182 52.0439 29.6244 58.085 29.6244 65.5884C29.6244 73.1534 35.9182 79.1944 43.6768 79.1944ZM43.6768 78.5589C40.1779 78.5589 38.9069 72.9643 38.9069 65.5884C38.9069 58.2125 40.1779 52.6157 43.6768 52.6157C46.9821 52.6157 48.4445 58.2125 48.4445 65.5884C48.4445 72.9643 47.2372 78.5589 43.6768 78.5589Z" fill="white"/>
<path d="M74.954 79.1944C82.7103 79.1944 89.0065 73.1534 89.0065 65.5884C89.0065 58.085 82.7103 52.0439 74.954 52.0439C67.1954 52.0439 60.9016 58.085 60.9016 65.5884C60.9016 73.1534 67.1954 79.1944 74.954 79.1944ZM74.954 78.5589C71.4551 78.5589 70.184 72.9643 70.184 65.5884C70.184 58.2125 71.4551 52.6157 74.954 52.6157C78.2593 52.6157 79.7217 58.2125 79.7217 65.5884C79.7217 72.9643 78.5144 78.5589 74.954 78.5589Z" fill="white"/>
<path d="M93.7687 78.5588H103.051V64.0621C103.623 63.7432 104.386 63.4904 105.149 63.4904C106.739 63.4904 108.01 64.0621 108.582 66.0963C110.3 72.0736 111.634 77.7319 118.12 78.5588C122.571 79.1305 125.495 78.5588 125.495 78.5588C125.495 78.5588 122.953 76.2057 121.044 72.3264C118.502 67.1145 117.548 62.7273 112.716 61.3264C110.044 60.5655 106.548 61.4539 104.133 62.9163L115.514 52.6156H114.623L103.051 62.9801V39.1372H93.7687V78.5588Z" fill="white"/>
<path d="M134.582 49.119C137.379 49.119 139.605 46.8935 139.605 44.0962C139.605 41.3627 137.379 39.1372 134.582 39.1372C131.849 39.1372 129.623 41.3627 129.623 44.0962C129.623 46.8935 131.849 49.119 134.582 49.119ZM129.94 78.5588H139.224V52.6794L129.94 52.6156V78.5588Z" fill="white"/>
<path d="M158.487 79.1945C165.289 79.1945 169.487 74.4906 170.822 68.322L170.123 68.1945C168.788 72.2013 165.736 74.9986 162.175 74.9986C157.341 74.9986 153.845 70.4838 153.526 62.4086H170.059C170.059 55.732 165.289 51.9165 158.487 51.9165C150.729 51.9165 144.371 58.0213 144.371 65.5248C144.371 73.0897 150.729 79.1945 158.487 79.1945ZM153.526 61.773C153.59 56.6227 155.624 52.6158 158.105 52.6158C160.585 52.6158 161.537 56.6227 161.537 61.773H153.526Z" fill="white"/>
<path d="M187.03 79.1944C193.323 79.1944 200 75.8891 200 71.4381C200 64.4426 182.834 62.2809 182.834 56.4312C182.834 53.6977 185.758 52.6795 187.793 52.6795C190.146 52.6795 192.052 53.9528 192.052 55.987C192.052 58.5929 190.146 58.8481 190.146 58.8481C190.146 60.6271 192.116 62.2809 194.405 62.2809C196.187 62.2809 198.538 61.2649 198.538 58.3401C198.538 54.7159 193.515 52.0439 187.665 52.0439C181.752 52.0439 175.011 53.9528 175.011 58.8481C175.011 66.1602 191.481 68.577 191.481 74.8709C191.481 77.9233 188.556 78.5589 186.711 78.5589C184.487 78.5589 181.943 77.3516 181.943 74.1716C181.943 72.4541 182.579 71.4381 183.913 71.4381C183.913 69.2126 181.435 67.1784 178.699 67.1784C176.285 67.1784 174.312 68.7661 174.312 71.4381C174.312 76.0144 180.799 79.1944 187.03 79.1944Z" fill="white"/>
</svg>
