<svg width="500" height="500" viewBox="0 0 500 500" fill="none" xmlns="http://www.w3.org/2000/svg">
<g clip-path="url(#clip0_217_186)">
<path d="M250 0C111.927 0 0 111.927 0 250C0 388.073 111.927 500 250 500C388.073 500 500 388.073 500 250C500 111.927 388.073 0 250 0Z" fill="#F3A1A2"/>
<path d="M86.4684 220.126H103.521V183.34C104.922 181.35 108.192 177.965 109.125 177.147C113.448 173.413 117.771 174.111 117.771 180.533V220.126H134.823V180.887C134.823 175.632 129.448 170.606 121.39 170.606C113.562 170.606 107.026 176.798 103.521 181.35V172.475H86.4684V220.126Z" fill="#2E1550"/>
<path d="M157.588 221.293C163.895 221.293 170.322 216.507 173.004 212.069C173.588 217.324 177.911 221.293 183.4 221.293C189.473 221.293 194.379 216.387 194.379 210.314L193.447 210.199C193.213 213.585 192.629 214.168 191.812 214.168C190.291 214.168 189.942 212.303 189.942 210.199V190.814C189.942 184.97 187.489 180.418 183.515 177.147C178.963 173.413 172.775 171.423 165.296 171.423C154.437 171.423 145.676 177.033 145.676 184.158C145.676 188.475 148.364 192.913 154.437 192.33C158.176 191.981 160.978 188.71 160.978 186.491C160.978 186.491 157.239 185.559 157.239 180.069C157.239 174.58 160.978 172.71 165.181 172.71C169.504 172.71 172.89 175.632 172.89 181.116V189.527C156.655 197.236 143.577 198.053 143.577 210.085C143.577 216.387 149.53 221.293 157.588 221.293ZM165.416 214.637C162.145 214.637 159.806 211.251 159.806 207.632C159.806 199.34 164.833 195.251 172.89 190.58V210.902C170.905 213.35 168.567 214.637 165.416 214.637Z" fill="#2E1550"/>
<path d="M216.565 221.293C224.388 221.293 230.93 215.106 234.435 210.548V210.783C234.435 216.621 238.987 221.293 244.945 221.293C251.018 221.293 255.925 216.387 255.925 210.314L254.987 210.199C254.753 213.585 254.169 214.168 253.352 214.168C251.836 214.168 251.487 212.303 251.487 210.199V172.475H234.435V208.564C233.034 210.548 229.763 213.939 228.826 214.757C224.508 218.491 220.185 217.793 220.185 211.366V172.475H203.133V211.017C203.133 216.272 208.508 221.293 216.565 221.293Z" fill="#2E1550"/>
<path d="M285.697 240.449C303.802 239.866 314.546 228.767 314.546 219.892C314.546 207.632 305.203 204.944 293.64 204.944C288.505 204.944 283.25 205.413 274.838 205.413C271.453 205.413 270.286 204.595 270.286 202.84C270.286 201.09 272.27 199.106 274.838 197.705C278.343 199.22 282.781 199.923 287.687 199.923C300.885 199.923 310.343 193.616 310.343 185.908C310.343 178.199 301.932 172.126 289.671 171.309C289.671 169.908 291.187 165.934 296.442 165.934C303.453 165.934 303.453 171.309 303.453 171.309C305.437 171.309 310.343 168.152 310.343 162.783C310.343 158.225 305.437 154.725 300.296 154.725C288.385 154.725 288.505 168.272 288.734 171.309H287.687C274.255 171.309 264.796 177.85 264.796 185.908C264.796 190.111 268.416 194.434 273.552 197.121C271.333 198.637 261.875 204.595 261.875 211.715C261.875 215.455 264.796 220.126 272.854 220.126C289.906 220.126 305.906 220.71 305.906 227.251C305.906 236.361 292.708 239.277 285.932 239.277C279.744 239.277 272.734 236.944 272.734 231.689C272.734 227.251 276.588 228.538 276.588 228.538C276.588 228.538 274.953 221.178 268.88 221.178C263.625 221.178 261.76 225.147 261.76 228.184C261.76 230.053 262.343 241.147 285.697 240.449ZM287.687 198.751C281.494 198.751 279.395 193.496 279.395 185.908C279.395 177.965 281.494 172.475 287.687 172.475C293.177 172.475 295.744 177.965 295.744 185.908C295.744 193.496 293.526 198.751 287.687 198.751Z" fill="#2E1550"/>
<path d="M323.301 220.126H340.353V183.34C341.754 181.35 345.025 177.965 345.957 177.147C350.28 173.413 354.603 174.111 354.603 180.533V220.126H371.655V180.887C371.655 175.632 366.28 170.606 358.223 170.606C350.395 170.606 343.858 176.798 340.353 181.35V147.715H323.301V220.126Z" fill="#2E1550"/>
<path d="M403.998 173.642V172.475H399.561V155.892H398.394C398.394 165.585 392.79 172.241 383.446 172.475H377.488V173.642H382.509V210.783C382.509 216.621 387.066 221.293 393.019 221.293C399.092 221.293 403.998 216.387 403.998 210.314L403.066 210.199C402.832 213.585 402.248 214.168 401.431 214.168C399.91 214.168 399.561 212.303 399.561 210.199V173.642H403.998Z" fill="#2E1550"/>
<path d="M411.354 242.199C415.792 242.199 418.479 241.382 420.698 239.512C425.37 236.012 429.922 227.132 432.609 221.413L454.568 172.475H453.281L439.849 201.908L425.719 172.475H407.969L431.911 220.126C428.99 226.668 423.969 235.658 419.646 238.814C416.958 240.798 413.104 239.277 413.104 236.012C413.104 232.272 417.896 231.34 417.896 231.34C417.896 231.34 417.193 221.647 409.021 221.647C402.479 221.647 398.974 226.783 398.974 230.757C398.974 236.83 404.115 242.199 411.354 242.199Z" fill="#2E1550"/>
<path d="M53.2899 328.864C68.8419 328.864 78.4409 318.109 81.493 304.004L79.894 303.713C76.8419 312.874 69.8628 319.27 61.7222 319.27C50.2326 319.27 41.9461 308.947 41.9461 289.03C41.9461 276.817 45.2899 268.093 53.4305 268.093C59.1024 268.093 62.5919 271.583 62.5919 277.254C62.5919 284.088 57.9409 285.249 57.9409 285.249C57.9409 288.301 62.1544 292.52 67.3888 292.52C74.0763 292.52 76.9826 287.432 76.9826 282.343C76.9826 273.473 66.0815 266.494 52.4149 266.494C35.1128 266.932 21.0138 280.744 21.0138 297.609C21.0138 314.905 35.5503 328.864 53.2899 328.864Z" fill="white"/>
<path d="M120.879 328.864C138.613 328.864 153.009 315.051 153.009 297.754C153.009 280.598 138.613 266.786 120.879 266.786C103.139 266.786 88.7484 280.598 88.7484 297.754C88.7484 315.051 103.139 328.864 120.879 328.864ZM120.879 327.411C112.879 327.411 109.972 314.619 109.972 297.754C109.972 280.89 112.879 268.093 120.879 268.093C128.436 268.093 131.78 280.89 131.78 297.754C131.78 314.619 129.019 327.411 120.879 327.411Z" fill="white"/>
<path d="M192.392 328.864C210.127 328.864 224.522 315.051 224.522 297.754C224.522 280.598 210.127 266.786 192.392 266.786C174.653 266.786 160.262 280.598 160.262 297.754C160.262 315.051 174.653 328.864 192.392 328.864ZM192.392 327.411C184.392 327.411 181.486 314.619 181.486 297.754C181.486 280.89 184.392 268.093 192.392 268.093C199.95 268.093 203.293 280.89 203.293 297.754C203.293 314.619 200.533 327.411 192.392 327.411Z" fill="white"/>
<path d="M235.411 327.411H256.635V294.265C257.942 293.536 259.687 292.958 261.432 292.958C265.067 292.958 267.974 294.265 269.281 298.916C273.208 312.583 276.26 325.52 291.088 327.411C301.265 328.718 307.953 327.411 307.953 327.411C307.953 327.411 302.14 322.03 297.776 313.161C291.963 301.244 289.781 291.213 278.734 288.01C272.625 286.27 264.63 288.301 259.109 291.645L285.13 268.093H283.093L256.635 291.791V237.275H235.411V327.411Z" fill="white"/>
<path d="M328.729 260.098C335.125 260.098 340.213 255.01 340.213 248.614C340.213 242.364 335.125 237.275 328.729 237.275C322.479 237.275 317.39 242.364 317.39 248.614C317.39 255.01 322.479 260.098 328.729 260.098ZM318.114 327.411H339.343V268.239L318.114 268.093V327.411Z" fill="white"/>
<path d="M383.387 328.864C398.939 328.864 408.538 318.109 411.59 304.004L409.991 303.713C406.939 312.874 399.96 319.27 391.819 319.27C380.767 319.27 372.772 308.947 372.043 290.484H409.845C409.845 275.218 398.939 266.494 383.387 266.494C365.647 266.494 351.111 280.452 351.111 297.609C351.111 314.905 365.647 328.864 383.387 328.864ZM372.043 289.03C372.189 277.254 376.84 268.093 382.512 268.093C388.184 268.093 390.361 277.254 390.361 289.03H372.043Z" fill="white"/>
<path d="M448.647 328.864C463.038 328.864 478.304 321.306 478.304 311.129C478.304 295.135 439.054 290.192 439.054 276.817C439.054 270.567 445.741 268.239 450.392 268.239C455.772 268.239 460.132 271.15 460.132 275.801C460.132 281.76 455.772 282.343 455.772 282.343C455.772 286.411 460.278 290.192 465.512 290.192C469.585 290.192 474.96 287.869 474.96 281.181C474.96 272.895 463.475 266.786 450.1 266.786C436.58 266.786 421.168 271.15 421.168 282.343C421.168 299.062 458.824 304.588 458.824 318.978C458.824 325.958 452.137 327.411 447.918 327.411C442.835 327.411 437.017 324.65 437.017 317.379C437.017 313.452 438.47 311.129 441.522 311.129C441.522 306.041 435.856 301.39 429.6 301.39C424.08 301.39 419.569 305.02 419.569 311.129C419.569 321.593 434.403 328.864 448.647 328.864Z" fill="white"/>
</g>
<defs>
<clipPath id="clip0_217_186">
<rect width="500" height="500" fill="white"/>
</clipPath>
</defs>
</svg>
