<svg width="500" height="500" viewBox="0 0 500 500" fill="none" xmlns="http://www.w3.org/2000/svg">
<g clip-path="url(#clip0_217_244)">
<path d="M250 0C111.927 0 0 111.927 0 250C0 388.073 111.927 500 250 500C388.073 500 500 388.073 500 250C500 111.927 388.073 0 250 0Z" fill="#2E1050"/>
<path d="M86.4682 220.196H103.52V183.409C104.921 181.425 108.192 178.034 109.124 177.217C113.447 173.482 117.77 174.18 117.77 180.607V220.196H134.817V180.956C134.817 175.701 129.447 170.68 121.39 170.68C113.562 170.68 107.025 176.868 103.52 181.425V172.545H86.4682V220.196Z" fill="#F3A1A2"/>
<path d="M157.583 221.363C163.89 221.363 170.312 216.576 173 212.139C173.583 217.394 177.906 221.363 183.395 221.363C189.468 221.363 194.375 216.456 194.375 210.383L193.437 210.269C193.203 213.654 192.619 214.238 191.802 214.238C190.286 214.238 189.932 212.373 189.932 210.269V190.883C189.932 185.045 187.484 180.488 183.51 177.217C178.958 173.482 172.765 171.498 165.291 171.498C154.432 171.498 145.671 177.102 145.671 184.227C145.671 188.545 148.359 192.982 154.432 192.399C158.166 192.05 160.974 188.779 160.974 186.56C160.974 186.56 157.234 185.628 157.234 180.139C157.234 174.649 160.974 172.779 165.177 172.779C169.494 172.779 172.885 175.701 172.885 181.191V189.597C156.651 197.305 143.573 198.123 143.573 210.154C143.573 216.456 149.526 221.363 157.583 221.363ZM165.411 214.706C162.14 214.706 159.802 211.321 159.802 207.701C159.802 199.409 164.828 195.321 172.885 190.649V210.972C170.901 213.42 168.562 214.706 165.411 214.706Z" fill="#F3A1A2"/>
<path d="M216.556 221.363C224.379 221.363 230.921 215.175 234.426 210.618V210.852C234.426 216.691 238.978 221.363 244.936 221.363C251.009 221.363 255.91 216.456 255.91 210.383L254.978 210.269C254.744 213.654 254.16 214.238 253.343 214.238C251.827 214.238 251.473 212.373 251.473 210.269V172.545H234.426V208.633C233.02 210.618 229.754 214.008 228.817 214.826C224.499 218.56 220.176 217.863 220.176 211.435V172.545H203.124V211.086C203.124 216.342 208.499 221.363 216.556 221.363Z" fill="#F3A1A2"/>
<path d="M285.684 240.519C303.788 239.93 314.533 228.836 314.533 219.961C314.533 207.701 305.189 205.014 293.626 205.014C288.486 205.014 283.231 205.482 274.824 205.482C271.439 205.482 270.267 204.665 270.267 202.909C270.267 201.159 272.257 199.175 274.824 197.774C278.33 199.29 282.767 199.993 287.668 199.993C300.866 199.993 310.33 193.685 310.33 185.977C310.33 178.269 301.918 172.196 289.658 171.378C289.658 169.977 291.173 166.008 296.428 166.008C303.439 166.008 303.439 171.378 303.439 171.378C305.423 171.378 310.33 168.227 310.33 162.852C310.33 158.3 305.423 154.795 300.283 154.795C288.371 154.795 288.486 168.342 288.72 171.378H287.668C274.241 171.378 264.783 177.92 264.783 185.977C264.783 190.18 268.402 194.503 273.538 197.191C271.319 198.706 261.861 204.665 261.861 211.79C261.861 215.524 264.783 220.196 272.84 220.196C289.892 220.196 305.887 220.779 305.887 227.321C305.887 236.43 292.694 239.347 285.918 239.347C279.731 239.347 272.72 237.014 272.72 231.758C272.72 227.321 276.574 228.602 276.574 228.602C276.574 228.602 274.939 221.248 268.866 221.248C263.611 221.248 261.746 225.217 261.746 228.253C261.746 230.123 262.33 241.217 285.684 240.519ZM287.668 198.826C281.481 198.826 279.376 193.571 279.376 185.977C279.376 178.034 281.481 172.545 287.668 172.545C293.158 172.545 295.731 178.034 295.731 185.977C295.731 193.571 293.512 198.826 287.668 198.826Z" fill="#F3A1A2"/>
<path d="M323.283 220.196H340.335V183.409C341.736 181.425 345.007 178.034 345.939 177.217C350.262 173.482 354.585 174.18 354.585 180.607V220.196H371.632V180.956C371.632 175.701 366.262 170.68 358.204 170.68C350.376 170.68 343.84 176.868 340.335 181.425V147.79H323.283V220.196Z" fill="#F3A1A2"/>
<path d="M403.975 173.717V172.545H399.538V155.962H398.371C398.371 165.654 392.762 172.316 383.423 172.545H377.465V173.717H382.486V210.852C382.486 216.691 387.043 221.363 392.996 221.363C399.069 221.363 403.975 216.456 403.975 210.383L403.043 210.269C402.809 213.654 402.225 214.238 401.408 214.238C399.887 214.238 399.538 212.373 399.538 210.269V173.717H403.975Z" fill="#F3A1A2"/>
<path d="M411.329 242.269C415.767 242.269 418.454 241.451 420.673 239.581C425.345 236.081 429.897 227.201 432.584 221.482L454.543 172.545H453.256L439.824 201.977L425.694 172.545H407.944L431.886 220.196C428.965 226.738 423.944 235.727 419.621 238.883C416.933 240.868 413.079 239.347 413.079 236.081C413.079 232.342 417.871 231.409 417.871 231.409C417.871 231.409 417.168 221.711 408.996 221.711C402.454 221.711 398.949 226.852 398.949 230.821C398.949 236.894 404.09 242.269 411.329 242.269Z" fill="#F3A1A2"/>
<path d="M53.2899 328.864C68.8419 328.864 78.4409 318.109 81.493 304.004L79.894 303.713C76.8419 312.874 69.8628 319.27 61.7222 319.27C50.2326 319.27 41.9461 308.947 41.9461 289.03C41.9461 276.817 45.2899 268.093 53.4305 268.093C59.1024 268.093 62.5919 271.583 62.5919 277.254C62.5919 284.088 57.9409 285.249 57.9409 285.249C57.9409 288.301 62.1544 292.52 67.3888 292.52C74.0763 292.52 76.9826 287.432 76.9826 282.343C76.9826 273.473 66.0815 266.494 52.4149 266.494C35.1128 266.932 21.0138 280.744 21.0138 297.609C21.0138 314.905 35.5503 328.864 53.2899 328.864Z" fill="white"/>
<path d="M120.879 328.864C138.613 328.864 153.009 315.051 153.009 297.754C153.009 280.598 138.613 266.786 120.879 266.786C103.139 266.786 88.7484 280.598 88.7484 297.754C88.7484 315.051 103.139 328.864 120.879 328.864ZM120.879 327.411C112.879 327.411 109.972 314.619 109.972 297.754C109.972 280.89 112.879 268.093 120.879 268.093C128.436 268.093 131.78 280.89 131.78 297.754C131.78 314.619 129.019 327.411 120.879 327.411Z" fill="white"/>
<path d="M192.392 328.864C210.127 328.864 224.522 315.051 224.522 297.754C224.522 280.598 210.127 266.786 192.392 266.786C174.653 266.786 160.262 280.598 160.262 297.754C160.262 315.051 174.653 328.864 192.392 328.864ZM192.392 327.411C184.392 327.411 181.486 314.619 181.486 297.754C181.486 280.89 184.392 268.093 192.392 268.093C199.95 268.093 203.293 280.89 203.293 297.754C203.293 314.619 200.533 327.411 192.392 327.411Z" fill="white"/>
<path d="M235.411 327.411H256.635V294.265C257.942 293.536 259.687 292.958 261.432 292.958C265.067 292.958 267.974 294.265 269.281 298.916C273.208 312.583 276.26 325.52 291.088 327.411C301.265 328.718 307.953 327.411 307.953 327.411C307.953 327.411 302.14 322.03 297.776 313.161C291.963 301.244 289.781 291.213 278.734 288.01C272.625 286.27 264.63 288.301 259.109 291.645L285.13 268.093H283.093L256.635 291.791V237.275H235.411V327.411Z" fill="white"/>
<path d="M328.729 260.098C335.125 260.098 340.213 255.01 340.213 248.614C340.213 242.364 335.125 237.275 328.729 237.275C322.479 237.275 317.39 242.364 317.39 248.614C317.39 255.01 322.479 260.098 328.729 260.098ZM318.114 327.411H339.343V268.239L318.114 268.093V327.411Z" fill="white"/>
<path d="M383.387 328.864C398.939 328.864 408.538 318.109 411.59 304.004L409.991 303.713C406.939 312.874 399.96 319.27 391.819 319.27C380.767 319.27 372.772 308.947 372.043 290.484H409.845C409.845 275.218 398.939 266.494 383.387 266.494C365.647 266.494 351.111 280.452 351.111 297.609C351.111 314.905 365.647 328.864 383.387 328.864ZM372.043 289.03C372.189 277.254 376.84 268.093 382.512 268.093C388.184 268.093 390.361 277.254 390.361 289.03H372.043Z" fill="white"/>
<path d="M448.647 328.864C463.038 328.864 478.304 321.306 478.304 311.129C478.304 295.135 439.054 290.192 439.054 276.817C439.054 270.567 445.741 268.239 450.392 268.239C455.772 268.239 460.132 271.15 460.132 275.801C460.132 281.76 455.772 282.343 455.772 282.343C455.772 286.411 460.278 290.192 465.512 290.192C469.585 290.192 474.96 287.869 474.96 281.181C474.96 272.895 463.475 266.786 450.1 266.786C436.58 266.786 421.168 271.15 421.168 282.343C421.168 299.062 458.824 304.588 458.824 318.978C458.824 325.958 452.137 327.411 447.918 327.411C442.835 327.411 437.017 324.65 437.017 317.379C437.017 313.452 438.47 311.129 441.522 311.129C441.522 306.041 435.856 301.39 429.6 301.39C424.08 301.39 419.569 305.02 419.569 311.129C419.569 321.593 434.403 328.864 448.647 328.864Z" fill="white"/>
</g>
<defs>
<clipPath id="clip0_217_244">
<rect width="500" height="500" fill="white"/>
</clipPath>
</defs>
</svg>
